<svg width="15" height="56" viewBox="0 0 15 56" fill="none" xmlns="http://www.w3.org/2000/svg">
<path d="M14.7845 12.38L10.7833 7.38C10.6113 7.19782 10.3771 7.08682 10.1272 7.06897C9.87719 7.05112 9.62963 7.12771 9.43345 7.2836C9.23727 7.43949 9.10677 7.66332 9.06777 7.91079C9.02876 8.15827 9.0841 8.41136 9.22283 8.62L11.9237 12H3.00092C2.73562 12 2.48119 11.8946 2.2936 11.7071C2.106 11.5196 2.00061 11.2652 2.00061 11V6C2.00061 5.73478 1.89522 5.48043 1.70763 5.29289C1.52004 5.10536 1.2656 5 1.00031 5C0.735009 5 0.480577 5.10536 0.292983 5.29289C0.105389 5.48043 0 5.73478 0 6V11C0 11.7956 0.316168 12.5587 0.87895 13.1213C1.44173 13.6839 2.20503 14 3.00092 14H11.9237L9.22283 17.38C9.05927 17.5872 8.98431 17.8507 9.01429 18.113C9.04427 18.3752 9.17677 18.615 9.38288 18.78C9.55887 18.9212 9.77744 18.9987 10.0031 19C10.1533 18.9993 10.3015 18.9648 10.4366 18.899C10.5716 18.8332 10.6902 18.7379 10.7833 18.62L14.7845 13.62C14.9241 13.4435 15 13.225 15 13C15 12.775 14.9241 12.5565 14.7845 12.38V12.38Z" fill="#A5A6A6"/>
</svg>
