<svg width="111" height="22" viewBox="0 0 111 22" fill="none" xmlns="http://www.w3.org/2000/svg">
<g clip-path="url(#clip0_1243_37)">
<path d="M1.19065 6.91397C1.19065 7.78797 1.32865 8.59297 1.65065 9.35197C1.97265 10.111 2.40965 10.778 3.00765 11.33C3.58265 11.905 4.29565 12.342 5.12365 12.664C5.95165 12.986 6.89465 13.147 7.95265 13.147C8.98765 13.147 9.93065 12.986 10.7816 12.664C11.6096 12.342 12.3456 11.905 12.9436 11.33C13.5416 10.778 14.0016 10.111 14.3236 9.35197C14.6456 8.59297 14.8066 7.78797 14.8066 6.91397C14.8066 6.06297 14.6456 5.25797 14.3236 4.49897C14.0016 3.73997 13.5416 3.07297 12.9436 2.49797C12.3456 1.94597 11.6096 1.48597 10.7816 1.16397C9.93065 0.841969 8.98765 0.65797 7.95265 0.65797C6.89465 0.65797 5.95165 0.841969 5.12365 1.16397C4.29565 1.48597 3.58265 1.94597 3.00765 2.49797C2.40965 3.07297 1.97265 3.73997 1.65065 4.49897C1.32865 5.25797 1.19065 6.06297 1.19065 6.91397ZM21.0396 20.024V2.26797C21.0396 1.99197 20.9706 1.73897 20.8326 1.50897C20.6946 1.30197 20.5106 1.11797 20.2806 0.97997C20.0506 0.841969 19.7746 0.726969 19.4756 0.65797C19.1766 0.588969 18.8776 0.542969 18.5556 0.542969C18.2336 0.542969 17.9346 0.588969 17.6586 0.65797C17.3826 0.726969 17.1296 0.841969 16.8996 0.97997C16.6696 1.11797 16.4856 1.30197 16.3476 1.50897C16.2096 1.73897 16.1406 1.99197 16.1406 2.26797V20.024C16.1406 20.323 16.2096 20.576 16.3476 20.783C16.4856 21.013 16.6696 21.197 16.8996 21.335C17.1296 21.473 17.3826 21.588 17.6586 21.657C17.9346 21.749 18.2336 21.772 18.5556 21.772C18.8776 21.772 19.1766 21.749 19.4756 21.657C19.7746 21.588 20.0506 21.473 20.2806 21.335C20.5106 21.197 20.6946 21.013 20.8326 20.783C20.9706 20.576 21.0396 20.323 21.0396 20.024ZM10.4596 18.414V15.102C10.4596 14.826 10.3906 14.596 10.2526 14.366C10.1146 14.159 9.90765 13.975 9.67765 13.837C9.44765 13.699 9.17165 13.584 8.87265 13.492C8.57365 13.423 8.27465 13.377 7.95265 13.377C7.63065 13.377 7.33165 13.423 7.05565 13.492C6.77965 13.584 6.52665 13.699 6.29665 13.837C6.06665 13.975 5.88265 14.159 5.74465 14.366C5.60665 14.596 5.53765 14.826 5.53765 15.102V18.414H1.53565C1.30565 18.414 1.14465 18.529 1.02965 18.713C0.914652 18.92 0.868652 19.127 0.868652 19.334C0.868652 19.587 0.914652 19.794 1.02965 19.978C1.14465 20.162 1.30565 20.254 1.53565 20.254H14.8986C15.1056 20.254 15.2666 20.162 15.3816 19.978C15.4966 19.794 15.5656 19.587 15.5656 19.334C15.5656 19.127 15.4966 18.92 15.3816 18.713C15.2666 18.529 15.1056 18.414 14.8986 18.414H10.4596ZM5.99765 6.91397C5.99765 6.29297 6.04365 5.69497 6.13565 5.14297C6.22765 4.59097 6.34265 4.13097 6.52665 3.71697C6.71065 3.30297 6.91765 2.98097 7.14765 2.75097C7.37765 2.52097 7.65365 2.38297 7.95265 2.38297C8.25165 2.38297 8.52765 2.52097 8.78065 2.75097C9.03365 2.98097 9.24065 3.30297 9.42465 3.71697C9.60865 4.13097 9.74665 4.59097 9.83865 5.14297C9.93065 5.69497 9.99965 6.29297 9.99965 6.91397C9.99965 7.55797 9.93065 8.13297 9.83865 8.68497C9.74665 9.23697 9.60865 9.69697 9.42465 10.111C9.24065 10.525 9.03365 10.847 8.78065 11.077C8.52765 11.307 8.25165 11.422 7.95265 11.422C7.65365 11.422 7.37765 11.307 7.14765 11.077C6.91765 10.847 6.71065 10.525 6.52665 10.111C6.34265 9.69697 6.22765 9.23697 6.13565 8.68497C6.04365 8.13297 5.99765 7.55797 5.99765 6.91397ZM43.8096 6.86797V2.17597C43.8096 1.89997 43.7406 1.66997 43.6026 1.46297C43.4646 1.27897 43.2806 1.09497 43.0736 0.956969C42.8436 0.818969 42.5906 0.726969 42.3146 0.65797C42.0156 0.588969 41.7166 0.542969 41.4406 0.542969C41.1646 0.542969 40.8886 0.588969 40.6126 0.65797C40.3366 0.726969 40.0836 0.818969 39.8536 0.956969C39.6236 1.09497 39.4626 1.27897 39.3246 1.46297C39.1866 1.66997 39.1406 1.89997 39.1406 2.17597V14.113C39.1406 14.389 39.1866 14.642 39.3246 14.849C39.4626 15.056 39.6236 15.24 39.8536 15.378C40.0836 15.516 40.3366 15.631 40.6126 15.7C40.8886 15.769 41.1646 15.792 41.4406 15.792C41.7166 15.792 42.0156 15.769 42.3146 15.7C42.5906 15.631 42.8436 15.516 43.0736 15.378C43.2806 15.24 43.4646 15.056 43.6026 14.849C43.7406 14.642 43.8096 14.389 43.8096 14.113V8.70797H45.7876C45.9946 8.70797 46.1556 8.61597 46.2706 8.43197C46.3856 8.24797 46.4546 8.04097 46.4546 7.78797C46.4546 7.58097 46.3856 7.37397 46.2706 7.16697C46.1556 6.98297 45.9946 6.86797 45.7876 6.86797H43.8096ZM31.1366 21.657H43.6946C43.9016 21.657 44.0626 21.565 44.1776 21.381C44.2926 21.197 44.3616 20.99 44.3616 20.737C44.3616 20.53 44.2926 20.323 44.1776 20.116C44.0626 19.932 43.9016 19.817 43.6946 19.817H31.1366V15.355C31.1366 15.056 31.0446 14.78 30.9066 14.55C30.7686 14.32 30.5616 14.136 30.3316 13.998C30.1016 13.86 29.8256 13.745 29.5266 13.653C29.2046 13.584 28.9056 13.538 28.5836 13.538C28.2616 13.538 27.9396 13.584 27.6406 13.653C27.3416 13.745 27.0656 13.86 26.8356 13.998C26.6056 14.136 26.3986 14.32 26.2606 14.55C26.1226 14.78 26.0536 15.056 26.0536 15.355V17.425C26.0536 18.805 26.4446 19.863 27.2726 20.576C28.0776 21.312 29.3656 21.657 31.1366 21.657ZM36.0816 12.227H38.0596C38.2666 12.227 38.4276 12.135 38.5426 11.951C38.6576 11.767 38.7266 11.56 38.7266 11.307C38.7266 11.1 38.6576 10.893 38.5426 10.686C38.4276 10.502 38.2666 10.387 38.0596 10.387H36.0816V2.72797H37.8296C38.0366 2.72797 38.1976 2.63597 38.3126 2.45197C38.4276 2.26797 38.4966 2.06097 38.4966 1.80797C38.4966 1.60097 38.4276 1.39397 38.3126 1.18697C38.1976 1.00297 38.0366 0.88797 37.8296 0.88797H33.8046C33.5286 0.88797 33.2526 0.933969 32.9766 1.00297C32.7006 1.07197 32.4706 1.16397 32.2636 1.30197C32.0336 1.43997 31.8726 1.62397 31.7346 1.80797C31.5966 2.01497 31.5506 2.24497 31.5506 2.49797V8.45497C31.5506 9.69697 31.8956 10.64 32.6316 11.284C33.3446 11.928 34.4946 12.227 36.0816 12.227ZM29.0666 12.227H31.1136C31.3206 12.227 31.4816 12.135 31.5966 11.951C31.7116 11.767 31.7806 11.56 31.7806 11.307C31.7806 11.1 31.7116 10.893 31.5966 10.686C31.4816 10.502 31.3206 10.387 31.1136 10.387H29.0666V2.72797H30.5386C30.7456 2.72797 30.9066 2.63597 31.0216 2.45197C31.1366 2.26797 31.2056 2.06097 31.2056 1.80797C31.2056 1.60097 31.1366 1.39397 31.0216 1.18697C30.9066 1.00297 30.7456 0.88797 30.5386 0.88797H26.7896C26.5136 0.88797 26.2376 0.933969 25.9616 1.00297C25.6856 1.07197 25.4556 1.16397 25.2486 1.30197C25.0186 1.43997 24.8576 1.62397 24.7196 1.80797C24.5816 2.01497 24.5356 2.24497 24.5356 2.49797V8.45497C24.5356 9.69697 24.8806 10.64 25.6166 11.284C26.3296 11.928 27.4796 12.227 29.0666 12.227ZM59.9096 9.92697H66.1196C66.3266 9.92697 66.4876 9.83497 66.6026 9.65097C66.7176 9.46697 66.7866 9.25997 66.7866 9.00697C66.7866 8.79997 66.7176 8.59297 66.6026 8.38597C66.4876 8.20197 66.3266 8.08697 66.1196 8.08697H53.2166V6.29297H65.7516C65.9586 6.29297 66.1196 6.20097 66.2346 6.01697C66.3496 5.83297 66.4186 5.62597 66.4186 5.37297C66.4186 5.16597 66.3496 4.95897 66.2346 4.75197C66.1196 4.56797 65.9586 4.45297 65.7516 4.45297H53.2166V2.72797H65.8896C66.0966 2.72797 66.2576 2.63597 66.3726 2.45197C66.4876 2.26797 66.5566 2.06097 66.5566 1.80797C66.5566 1.60097 66.4876 1.39397 66.3726 1.18697C66.2576 1.00297 66.0966 0.88797 65.8896 0.88797H50.7556C50.4336 0.88797 50.1346 0.933969 49.8586 1.00297C49.5596 1.09497 49.3066 1.20997 49.0766 1.34797C48.8466 1.48597 48.6626 1.66997 48.5246 1.87697C48.3866 2.10697 48.3176 2.35997 48.3176 2.63597V6.08597C48.3176 7.41997 48.7086 8.40897 49.4906 9.00697C50.2726 9.62797 51.5146 9.92697 53.2166 9.92697H54.9876V11.56H47.4206C47.1906 11.56 47.0296 11.675 46.9146 11.859C46.7996 12.066 46.7536 12.273 46.7536 12.48C46.7536 12.733 46.7996 12.94 46.9146 13.124C47.0296 13.308 47.1906 13.4 47.4206 13.4H67.4766C67.6836 13.4 67.8446 13.308 67.9596 13.124C68.0746 12.94 68.1436 12.733 68.1436 12.48C68.1436 12.273 68.0746 12.066 67.9596 11.859C67.8446 11.675 67.6836 11.56 67.4766 11.56H59.9096V9.92697ZM66.5566 20.024V16.643C66.5566 16.367 66.4876 16.114 66.3496 15.884C66.2116 15.677 66.0276 15.493 65.7976 15.355C65.5676 15.217 65.2916 15.102 64.9926 15.033C64.6936 14.964 64.3946 14.918 64.0726 14.918H48.8696C48.6396 14.918 48.4786 15.033 48.3636 15.217C48.2486 15.424 48.2026 15.631 48.2026 15.838C48.2026 16.091 48.2486 16.298 48.3636 16.482C48.4786 16.666 48.6396 16.758 48.8696 16.758H61.6576V20.024C61.6576 20.323 61.7266 20.576 61.8646 20.783C62.0026 21.013 62.1866 21.197 62.4166 21.335C62.6466 21.473 62.8996 21.588 63.1756 21.657C63.4516 21.749 63.7506 21.772 64.0726 21.772C64.3946 21.772 64.6936 21.749 64.9926 21.657C65.2916 21.588 65.5676 21.473 65.7976 21.335C66.0276 21.197 66.2116 21.013 66.3496 20.783C66.4876 20.576 66.5566 20.323 66.5566 20.024ZM87.1019 14.389V14.688C87.1019 15.93 86.8029 16.781 86.2509 17.287C85.6989 17.793 84.8709 18.046 83.7899 18.046H82.8699C82.6169 18.046 82.3179 18.046 81.9959 18.023V10.962H84.5259C85.0319 10.962 85.4459 11.054 85.7679 11.238C86.0899 11.422 86.3659 11.652 86.5499 11.951C86.7339 12.273 86.8719 12.641 86.9639 13.055C87.0559 13.469 87.1019 13.929 87.1019 14.389ZM87.0559 5.69497V5.87897C87.0559 6.36197 87.0099 6.79897 86.9409 7.21297C86.8719 7.62697 86.7339 7.99497 86.5499 8.29397C86.3659 8.61597 86.0899 8.84597 85.7679 9.02997C85.4459 9.21397 85.0089 9.28297 84.5029 9.28297H81.9959V2.63597C82.3409 2.63597 82.6399 2.61297 82.9159 2.61297H83.8359C84.8479 2.61297 85.6299 2.84297 86.2049 3.27997C86.7569 3.73997 87.0559 4.54497 87.0559 5.69497ZM79.5809 19.725C79.9029 19.748 80.1559 19.771 80.3859 19.771C80.6159 19.771 80.8459 19.794 81.0759 19.794C81.3059 19.794 81.5589 19.794 81.8809 19.794H83.1689C84.4569 19.794 85.6299 19.725 86.7109 19.587C87.7689 19.449 88.6889 19.15 89.4709 18.736C90.2299 18.322 90.8279 17.747 91.2649 17.011C91.6789 16.275 91.9089 15.332 91.9089 14.136V13.883C91.9089 13.147 91.7249 12.411 91.3799 11.721C91.0349 11.031 90.4599 10.479 89.6319 10.111C90.4139 9.71997 90.9659 9.19097 91.3109 8.50097C91.6329 7.81097 91.8169 7.07497 91.8169 6.29297V6.06297C91.8169 5.00497 91.6099 4.15397 91.2419 3.46397C90.8509 2.79697 90.2989 2.26797 89.5629 1.87697C88.8269 1.50897 87.9069 1.23297 86.8489 1.09497C85.7909 0.956969 84.5719 0.864969 83.2149 0.864969H82.0649C81.7429 0.864969 81.4439 0.88797 81.1679 0.88797C80.8919 0.88797 80.6389 0.910969 80.3859 0.910969C80.1329 0.910969 79.8569 0.933969 79.5809 0.933969C79.2589 0.956969 78.9599 1.00297 78.6839 1.09497C78.4079 1.18697 78.1549 1.32497 77.9479 1.48597C77.7179 1.64697 77.5569 1.85397 77.4189 2.10697C77.2809 2.35997 77.2119 2.65897 77.2119 2.98097V17.701C77.2119 18.046 77.2809 18.345 77.4189 18.598C77.5569 18.851 77.7179 19.058 77.9479 19.219C78.1549 19.38 78.4079 19.495 78.6839 19.587C78.9599 19.679 79.2589 19.725 79.5809 19.725ZM110.368 12.089V2.86597C110.368 2.54397 110.299 2.24497 110.161 1.99197C110.023 1.73897 109.839 1.53197 109.609 1.34797C109.379 1.18697 109.126 1.07197 108.85 0.97997C108.574 0.88797 108.275 0.841969 107.999 0.841969C107.677 0.841969 107.378 0.88797 107.102 0.97997C106.803 1.07197 106.55 1.18697 106.32 1.34797C106.09 1.53197 105.929 1.73897 105.791 1.99197C105.653 2.24497 105.584 2.54397 105.584 2.86597V12.089C105.584 13.216 105.515 14.159 105.4 14.941C105.285 15.723 105.101 16.344 104.871 16.804C104.641 17.287 104.319 17.632 103.951 17.839C103.56 18.069 103.1 18.161 102.571 18.161C102.019 18.161 101.559 18.069 101.191 17.839C100.8 17.632 100.478 17.287 100.248 16.804C100.018 16.344 99.8337 15.723 99.7417 14.941C99.6267 14.159 99.5807 13.216 99.5807 12.089V2.88897C99.5807 2.56697 99.5117 2.26797 99.3737 1.99197C99.2357 1.73897 99.0517 1.53197 98.8217 1.34797C98.5917 1.18697 98.3157 1.07197 98.0397 0.97997C97.7637 0.88797 97.4647 0.841969 97.1887 0.841969C96.8667 0.841969 96.5677 0.88797 96.2917 0.97997C95.9927 1.07197 95.7397 1.18697 95.5097 1.34797C95.2797 1.53197 95.0957 1.73897 94.9577 1.99197C94.8197 2.26797 94.7507 2.56697 94.7507 2.88897V12.089C94.7507 14.757 95.4177 16.735 96.7977 18.023C98.1777 19.334 100.087 19.978 102.571 19.978C105.032 19.978 106.941 19.334 108.321 18.023C109.678 16.735 110.368 14.757 110.368 12.089Z" fill="#4ADAC4"/>
</g>
<defs>
<clipPath id="clip0_1243_37">
<rect width="111" height="22" fill="white"/>
</clipPath>
</defs>
</svg>
