<svg width="68" height="22" viewBox="0 0 68 22" fill="none" xmlns="http://www.w3.org/2000/svg">
<path d="M0.321999 6.371C0.321999 7.245 0.459999 8.05 0.781999 8.809C1.104 9.568 1.541 10.235 2.139 10.787C2.714 11.362 3.427 11.799 4.255 12.121C5.083 12.443 6.026 12.604 7.084 12.604C8.119 12.604 9.062 12.443 9.91297 12.121C10.741 11.799 11.477 11.362 12.075 10.787C12.673 10.235 13.133 9.568 13.455 8.809C13.777 8.05 13.938 7.245 13.938 6.371C13.938 5.52 13.777 4.715 13.455 3.956C13.133 3.197 12.673 2.53 12.075 1.955C11.477 1.403 10.741 0.943001 9.91297 0.621001C9.062 0.299 8.119 0.115001 7.084 0.115001C6.026 0.115001 5.083 0.299 4.255 0.621001C3.427 0.943001 2.714 1.403 2.139 1.955C1.541 2.53 1.104 3.197 0.781999 3.956C0.459999 4.715 0.321999 5.52 0.321999 6.371ZM20.171 19.481V1.725C20.171 1.449 20.102 1.196 19.964 0.966001C19.826 0.759001 19.642 0.575001 19.412 0.437001C19.182 0.299 18.906 0.184 18.607 0.115001C18.308 0.046 18.009 0 17.687 0C17.365 0 17.066 0.046 16.79 0.115001C16.514 0.184 16.261 0.299 16.031 0.437001C15.801 0.575001 15.617 0.759001 15.479 0.966001C15.341 1.196 15.272 1.449 15.272 1.725V19.481C15.272 19.78 15.341 20.033 15.479 20.24C15.617 20.47 15.801 20.654 16.031 20.792C16.261 20.93 16.514 21.045 16.79 21.114C17.066 21.206 17.365 21.229 17.687 21.229C18.009 21.229 18.308 21.206 18.607 21.114C18.906 21.045 19.182 20.93 19.412 20.792C19.642 20.654 19.826 20.47 19.964 20.24C20.102 20.033 20.171 19.78 20.171 19.481ZM9.59097 17.871V14.559C9.59097 14.283 9.52197 14.053 9.38397 13.823C9.24597 13.616 9.039 13.432 8.809 13.294C8.579 13.156 8.303 13.041 8.004 12.949C7.705 12.88 7.406 12.834 7.084 12.834C6.762 12.834 6.463 12.88 6.187 12.949C5.911 13.041 5.658 13.156 5.428 13.294C5.198 13.432 5.014 13.616 4.876 13.823C4.738 14.053 4.669 14.283 4.669 14.559V17.871H0.666999C0.436999 17.871 0.275999 17.986 0.160999 18.17C0.0459999 18.377 0 18.584 0 18.791C0 19.044 0.0459999 19.251 0.160999 19.435C0.275999 19.619 0.436999 19.711 0.666999 19.711H14.03C14.237 19.711 14.398 19.619 14.513 19.435C14.628 19.251 14.697 19.044 14.697 18.791C14.697 18.584 14.628 18.377 14.513 18.17C14.398 17.986 14.237 17.871 14.03 17.871H9.59097ZM5.129 6.371C5.129 5.75 5.175 5.152 5.267 4.6C5.359 4.048 5.474 3.588 5.658 3.174C5.842 2.76 6.049 2.438 6.279 2.208C6.509 1.978 6.785 1.84 7.084 1.84C7.383 1.84 7.659 1.978 7.912 2.208C8.165 2.438 8.372 2.76 8.556 3.174C8.74 3.588 8.878 4.048 8.97 4.6C9.062 5.152 9.131 5.75 9.131 6.371C9.131 7.015 9.062 7.59 8.97 8.142C8.878 8.694 8.74 9.154 8.556 9.568C8.372 9.982 8.165 10.304 7.912 10.534C7.659 10.764 7.383 10.879 7.084 10.879C6.785 10.879 6.509 10.764 6.279 10.534C6.049 10.304 5.842 9.982 5.658 9.568C5.474 9.154 5.359 8.694 5.267 8.142C5.175 7.59 5.129 7.015 5.129 6.371ZM42.941 6.325V1.633C42.941 1.357 42.872 1.127 42.734 0.920001C42.596 0.736001 42.412 0.552001 42.205 0.414C41.975 0.276 41.722 0.184 41.446 0.115001C41.147 0.046 40.848 0 40.572 0C40.296 0 40.02 0.046 39.744 0.115001C39.468 0.184 39.215 0.276 38.985 0.414C38.755 0.552001 38.594 0.736001 38.456 0.920001C38.318 1.127 38.272 1.357 38.272 1.633V13.57C38.272 13.846 38.318 14.099 38.456 14.306C38.594 14.513 38.755 14.697 38.985 14.835C39.215 14.973 39.468 15.088 39.744 15.157C40.02 15.226 40.296 15.249 40.572 15.249C40.848 15.249 41.147 15.226 41.446 15.157C41.722 15.088 41.975 14.973 42.205 14.835C42.412 14.697 42.596 14.513 42.734 14.306C42.872 14.099 42.941 13.846 42.941 13.57V8.165H44.919C45.126 8.165 45.287 8.073 45.402 7.889C45.517 7.705 45.586 7.498 45.586 7.245C45.586 7.038 45.517 6.831 45.402 6.624C45.287 6.44 45.126 6.325 44.919 6.325H42.941ZM30.268 21.114H42.826C43.033 21.114 43.194 21.022 43.309 20.838C43.424 20.654 43.493 20.447 43.493 20.194C43.493 19.987 43.424 19.78 43.309 19.573C43.194 19.389 43.033 19.274 42.826 19.274H30.268V14.812C30.268 14.513 30.176 14.237 30.038 14.007C29.9 13.777 29.693 13.593 29.463 13.455C29.233 13.317 28.957 13.202 28.658 13.11C28.336 13.041 28.037 12.995 27.715 12.995C27.393 12.995 27.071 13.041 26.772 13.11C26.473 13.202 26.197 13.317 25.967 13.455C25.737 13.593 25.53 13.777 25.392 14.007C25.254 14.237 25.185 14.513 25.185 14.812V16.882C25.185 18.262 25.576 19.32 26.404 20.033C27.209 20.769 28.497 21.114 30.268 21.114ZM35.213 11.684H37.191C37.398 11.684 37.559 11.592 37.674 11.408C37.789 11.224 37.858 11.017 37.858 10.764C37.858 10.557 37.789 10.35 37.674 10.143C37.559 9.959 37.398 9.844 37.191 9.844H35.213V2.185H36.961C37.168 2.185 37.329 2.093 37.444 1.909C37.559 1.725 37.628 1.518 37.628 1.265C37.628 1.058 37.559 0.851001 37.444 0.644001C37.329 0.460001 37.168 0.345001 36.961 0.345001H32.936C32.66 0.345001 32.384 0.391 32.108 0.460001C31.832 0.529001 31.602 0.621001 31.395 0.759001C31.165 0.897001 31.004 1.081 30.866 1.265C30.728 1.472 30.682 1.702 30.682 1.955V7.912C30.682 9.154 31.027 10.097 31.763 10.741C32.476 11.385 33.626 11.684 35.213 11.684ZM28.198 11.684H30.245C30.452 11.684 30.613 11.592 30.728 11.408C30.843 11.224 30.912 11.017 30.912 10.764C30.912 10.557 30.843 10.35 30.728 10.143C30.613 9.959 30.452 9.844 30.245 9.844H28.198V2.185H29.67C29.877 2.185 30.038 2.093 30.153 1.909C30.268 1.725 30.337 1.518 30.337 1.265C30.337 1.058 30.268 0.851001 30.153 0.644001C30.038 0.460001 29.877 0.345001 29.67 0.345001H25.921C25.645 0.345001 25.369 0.391 25.093 0.460001C24.817 0.529001 24.587 0.621001 24.38 0.759001C24.15 0.897001 23.989 1.081 23.851 1.265C23.713 1.472 23.667 1.702 23.667 1.955V7.912C23.667 9.154 24.012 10.097 24.748 10.741C25.461 11.385 26.611 11.684 28.198 11.684ZM59.041 9.384H65.251C65.458 9.384 65.619 9.292 65.734 9.108C65.849 8.924 65.918 8.717 65.918 8.464C65.918 8.257 65.849 8.05 65.734 7.843C65.619 7.659 65.458 7.544 65.251 7.544H52.348V5.75H64.883C65.09 5.75 65.251 5.658 65.366 5.474C65.481 5.29 65.55 5.083 65.55 4.83C65.55 4.623 65.481 4.416 65.366 4.209C65.251 4.025 65.09 3.91 64.883 3.91H52.348V2.185H65.021C65.228 2.185 65.389 2.093 65.504 1.909C65.619 1.725 65.688 1.518 65.688 1.265C65.688 1.058 65.619 0.851001 65.504 0.644001C65.389 0.460001 65.228 0.345001 65.021 0.345001H49.887C49.565 0.345001 49.266 0.391 48.99 0.460001C48.691 0.552001 48.438 0.667001 48.208 0.805001C47.978 0.943001 47.794 1.127 47.656 1.334C47.518 1.564 47.449 1.817 47.449 2.093V5.543C47.449 6.877 47.84 7.866 48.622 8.464C49.404 9.085 50.646 9.384 52.348 9.384H54.119V11.017H46.552C46.322 11.017 46.161 11.132 46.046 11.316C45.931 11.523 45.885 11.73 45.885 11.937C45.885 12.19 45.931 12.397 46.046 12.581C46.161 12.765 46.322 12.857 46.552 12.857H66.608C66.815 12.857 66.976 12.765 67.091 12.581C67.206 12.397 67.275 12.19 67.275 11.937C67.275 11.73 67.206 11.523 67.091 11.316C66.976 11.132 66.815 11.017 66.608 11.017H59.041V9.384ZM65.688 19.481V16.1C65.688 15.824 65.619 15.571 65.481 15.341C65.343 15.134 65.159 14.95 64.929 14.812C64.699 14.674 64.423 14.559 64.124 14.49C63.825 14.421 63.526 14.375 63.204 14.375H48.001C47.771 14.375 47.61 14.49 47.495 14.674C47.38 14.881 47.334 15.088 47.334 15.295C47.334 15.548 47.38 15.755 47.495 15.939C47.61 16.123 47.771 16.215 48.001 16.215H60.789V19.481C60.789 19.78 60.858 20.033 60.996 20.24C61.134 20.47 61.318 20.654 61.548 20.792C61.778 20.93 62.031 21.045 62.307 21.114C62.583 21.206 62.882 21.229 63.204 21.229C63.526 21.229 63.825 21.206 64.124 21.114C64.423 21.045 64.699 20.93 64.929 20.792C65.159 20.654 65.343 20.47 65.481 20.24C65.619 20.033 65.688 19.78 65.688 19.481Z" fill="#4ADAC4"/>
</svg>