<svg width="50" height="50" viewBox="0 0 50 50" fill="none" xmlns="http://www.w3.org/2000/svg">
<path d="M36.5234 30.4687C38.4766 27.3958 39.6224 23.75 39.6224 19.8307C39.6224 8.88021 30.7552 0 19.8177 0C8.86719 0 0 8.88021 0 19.8307C0 30.7812 8.86719 39.6615 19.8047 39.6615C23.776 39.6615 27.474 38.4896 30.5729 36.4844L31.4714 35.8594L45.612 50L50 45.5339L35.8724 31.3932L36.5234 30.4687ZM30.9115 8.75C33.8672 11.7057 35.4948 15.638 35.4948 19.8177C35.4948 23.9974 33.8672 27.9297 30.9115 30.8854C27.9557 33.8411 24.0234 35.4687 19.8437 35.4687C15.6641 35.4687 11.7318 33.8411 8.77604 30.8854C5.82031 27.9297 4.19271 23.9974 4.19271 19.8177C4.19271 15.638 5.82031 11.7057 8.77604 8.75C11.7318 5.79427 15.6641 4.16667 19.8437 4.16667C24.0234 4.16667 27.9557 5.79427 30.9115 8.75Z" fill="#D8D8D8"/>
</svg>
