<svg width="22" height="22" viewBox="0 0 22 22" fill="none" xmlns="http://www.w3.org/2000/svg">
<path d="M15.6094 13.1875C16.3906 11.9583 16.849 10.5 16.849 8.93229C16.849 4.55208 13.3021 1 8.92708 1C4.54687 1 1 4.55208 1 8.93229C1 13.3125 4.54688 16.8646 8.92188 16.8646C10.5104 16.8646 11.9896 16.3958 13.2292 15.5938L13.5885 15.3437L19.2448 21L21 19.2135L15.349 13.5573L15.6094 13.1875ZM13.3646 4.5C14.5469 5.68229 15.1979 7.25521 15.1979 8.92708C15.1979 10.599 14.5469 12.1719 13.3646 13.3542C12.1823 14.5365 10.6094 15.1875 8.9375 15.1875C7.26562 15.1875 5.69271 14.5365 4.51042 13.3542C3.32812 12.1719 2.67708 10.599 2.67708 8.92708C2.67708 7.25521 3.32812 5.68229 4.51042 4.5C5.69271 3.31771 7.26562 2.66667 8.9375 2.66667C10.6094 2.66667 12.1823 3.31771 13.3646 4.5Z" fill="#737373"/>
</svg>
