<svg width="20" height="20" viewBox="0 0 20 20" fill="none" xmlns="http://www.w3.org/2000/svg">
<g clip-path="url(#clip0_1267_13)">
<path d="M10.1937 1.01983C10.2848 0.554818 10.5241 0.256229 10.8512 0.104487C11.1165 -0.0195176 11.4274 -0.030939 11.7497 0.053906C12.0296 0.12733 12.3242 0.27744 12.6058 0.492816C13.3691 1.07531 14.0837 2.1734 14.1748 3.5456C14.2025 3.9682 14.1943 4.41853 14.1553 4.89823C14.1292 5.21477 14.0885 5.54762 14.0332 5.89353H17.2803L17.2949 5.89516C17.8223 5.91637 18.3333 6.04527 18.7646 6.27043C19.1374 6.46623 19.4515 6.73382 19.6696 7.06667C19.8942 7.40931 20.0163 7.81722 19.9984 8.28387C19.9854 8.62978 19.8926 9.00505 19.7038 9.4048C19.8112 9.85513 19.8617 10.3381 19.7917 10.7623C19.7331 11.1229 19.5931 11.4427 19.3424 11.6809C19.3555 12.2765 19.2757 12.7758 19.1162 13.2081C18.9518 13.6519 18.7061 14.0207 18.3903 14.347C18.3626 14.6326 18.3171 14.905 18.2454 15.1596C18.1559 15.4794 18.0241 15.7731 17.8402 16.0325C17.2868 16.8157 16.8441 16.7977 16.1426 16.7684C16.0449 16.7651 15.9408 16.7602 15.778 16.7602H9.42546C8.85417 16.7602 8.40495 16.677 7.99479 16.4714C7.58952 16.2675 7.24284 15.9542 6.87337 15.4908L6.77897 15.2199V7.79601L7.10124 7.70953C7.91992 7.48763 8.56445 6.78603 9.06576 5.94574C9.58008 5.08097 9.94141 4.06936 10.1888 3.25191V1.10305L10.1937 1.01983ZM0.651042 7.01935H5.38412C5.74219 7.01935 6.03516 7.31305 6.03516 7.67201V16.3474C6.03516 16.7064 5.74219 17.0001 5.38412 17.0001H0.651042C0.292969 17.0001 0 16.7064 0 16.3474V7.67201C0 7.31305 0.292969 7.01935 0.651042 7.01935ZM11.2142 0.894198C11.1442 0.92683 11.0872 1.00841 11.0531 1.14873V3.31228L11.0335 3.43628C10.7715 4.31247 10.3809 5.42198 9.80469 6.38954C9.2627 7.29836 8.55957 8.07992 7.64486 8.44051V15.0666C7.89551 15.3652 8.12663 15.5675 8.38053 15.6948C8.66048 15.8351 8.98926 15.8905 9.42546 15.8905H15.778C15.8919 15.8905 16.0384 15.8971 16.1768 15.902C16.5934 15.9183 16.8555 15.9297 17.137 15.5316V15.53C17.2591 15.357 17.3486 15.1531 17.4121 14.9246C17.4805 14.6815 17.5212 14.4107 17.5407 14.1219L17.6742 13.8363C17.9541 13.5704 18.1673 13.2718 18.304 12.9047C18.444 12.5261 18.5042 12.0709 18.4701 11.4998L18.4554 11.242L18.6735 11.1066C18.8232 11.0136 18.9046 10.8374 18.9388 10.622C18.9941 10.2794 18.9355 9.86003 18.8298 9.47007L18.8639 9.15516C19.0397 8.81741 19.1243 8.51556 19.1357 8.25124C19.1455 7.97712 19.0755 7.7389 18.9453 7.54148C18.8086 7.33426 18.6084 7.16457 18.3659 7.0373C18.0534 6.87251 17.6758 6.77787 17.2819 6.76155V6.76319H12.998L13.0941 6.24922C13.1868 5.75157 13.2536 5.27677 13.2926 4.82644C13.3301 4.3859 13.3366 3.97636 13.3122 3.60434C13.2389 2.50788 12.679 1.63985 12.0817 1.18463C11.8913 1.03941 11.7025 0.939883 11.5316 0.895829C11.3997 0.859933 11.2923 0.858302 11.2142 0.894198Z" fill="#A5A6A6"/>
</g>
<defs>
<clipPath id="clip0_1267_13">
<rect width="20" height="17" fill="white"/>
</clipPath>
</defs>
</svg>
