<svg width="20" height="23" viewBox="0 0 20 23" fill="none" xmlns="http://www.w3.org/2000/svg">
<path d="M12.6776 2.60226C12.5347 2.4594 12.3031 2.4594 12.1603 2.60226L2.07417 12.6883C1.93135 12.8312 1.93131 13.0628 2.07417 13.2056L6.79429 17.9257C6.93711 18.0685 7.16871 18.0685 7.31157 17.9257L17.3976 7.83965C17.5404 7.69683 17.5404 7.46523 17.3976 7.32241L12.6776 2.60226Z" fill="#4ADACA"/>
<path d="M1.5177 13.7622C1.42044 13.6649 1.2769 13.6305 1.14612 13.6729C1.01533 13.7154 0.919386 13.8275 0.897815 13.9634L0.00453703 19.5767C-0.0138557 19.6924 0.0243283 19.81 0.10718 19.8928C0.190033 19.9757 0.307594 20.0138 0.42329 19.9955L6.03664 19.1022C6.17243 19.0806 6.28469 18.9847 6.32711 18.8539C6.36958 18.7232 6.33508 18.5796 6.23782 18.4824L1.5177 13.7622Z" fill="#4ADACA"/>
<path d="M19.8929 4.82725L15.1728 0.107146C15.03 -0.0357153 14.7983 -0.0357153 14.6555 0.107146L13.1916 1.57106C13.0488 1.71388 13.0488 1.94549 13.1916 2.0883L17.9117 6.80841C18.0545 6.95123 18.2862 6.95123 18.429 6.80841L19.8929 5.34449C20.0357 5.20167 20.0357 4.97007 19.8929 4.82725Z" fill="#4ADACA"/>
</svg>
